<svg xmlns="http://www.w3.org/2000/svg" viewBox="0 0 24 24" fill="none"
     stroke="currentColor" stroke-width="1.5" stroke-linecap="round" stroke-linejoin="round">
  <!-- Crown spines -->
  <path d="M13.5 1.5 C14 3 14 4 13.5 5"/>
  <path d="M16 1 C16.5 2.5 16.5 4 16 5"/>
  <!-- Back of head (left side arc) -->
  <path d="M13.5 5 C11.5 5.5 10 7 10 9 C10 11 11 12.5 13 13.5"/>
  <!-- Front of head and crown base (right side arc) -->
  <path d="M16 5 C18 5.5 19.5 7 19.5 9 C19.5 10.5 18.5 12 17 12.5 L13 13.5"/>
  <!-- Snout (extending right from mid-head) -->
  <path d="M19.5 8.5 C21.5 8 23 9 23 10.5 C23 12 21.5 12.5 20 12"/>
  <!-- Eye -->
  <circle cx="15.5" cy="7.5" r="0.75" fill="currentColor" stroke="none"/>
  <!-- Neck / upper body left -->
  <path d="M13 13.5 C11.5 15 11 17.5 11.5 20.5"/>
  <!-- Dorsal fin (large wing on left side of body) -->
  <path d="M12 14.5 L5.5 14 L5 18 L12.5 18.5"/>
  <!-- Body right side from head to tail area -->
  <path d="M17 12.5 C18 14 17.5 16.5 16 18 L13 19.5"/>
  <!-- Belly groove detail -->
  <path d="M14.5 15.5 Q14 17.5 14.5 20"/>
  <!-- Belly spot -->
  <circle cx="12" cy="21" r="0.6" fill="currentColor" stroke="none"/>
  <!-- Tail coil -->
  <path d="M11.5 20.5 C11 22.5 12 24 14 24 C16.5 24 17.5 22 17 20.5 C16.5 19 15 18.5 14 20"/>
</svg>
